<?xml version="1.0" encoding="utf-8"?>
<!-- Generator: Adobe Illustrator 24.3.0, SVG Export Plug-In . SVG Version: 6.00 Build 0)  -->
<svg version="1.1" xmlns="http://www.w3.org/2000/svg" xmlns:xlink="http://www.w3.org/1999/xlink" x="0px" y="0px"
	 viewBox="0 0 612 612" style="enable-background:new 0 0 612 612;" xml:space="preserve">
<style type="text/css">
	.st0{display:none;}
	.st1{display:inline;}
	.st2{stroke:#000000;stroke-width:36;stroke-miterlimit:10;}
</style>
<g id="Capa_1" class="st0">
	<g>
		<path class="st1" d="M147.7,330.7v-50.4h30.5l-0.1,2.2h-28.9l0.9-0.9v49H147.7z"/>
	</g>
	<g class="st1">
		<line x1="-4.8" y1="460.8" x2="152.2" y2="612"/>
		<rect x="68.7" y="427.4" transform="matrix(0.6936 -0.7204 0.7204 0.6936 -363.8404 217.4473)" width="10" height="218"/>
		<rect x="68.7" y="427.4" transform="matrix(0.6936 -0.7204 0.7204 0.6936 -363.8404 217.4473)" width="10" height="218"/>
	</g>
	<g class="st1">
		<line x1="612" y1="0" x2="152.2" y2="612"/>
		<rect x="-0.6" y="301" transform="matrix(0.6006 -0.7995 0.7995 0.6006 -92.0546 427.7154)" width="765.5" height="10"/>
		<rect x="-0.6" y="301" transform="matrix(0.6006 -0.7995 0.7995 0.6006 -92.0546 427.7154)" width="765.5" height="10"/>
	</g>
</g>
<g id="Слой_2">
	<g class="st0">
		<path class="st1" d="M159.1,610.2L159.1,610.2c-2.2,2.2-5.8,2.2-8.1,0L1.7,460.9c-2.2-2.2-2.2-5.8,0-8.1h0c2.2-2.2,5.8-2.2,8.1,0
			l149.3,149.3C161.4,604.4,161.4,608,159.1,610.2z"/>
		<path class="st1" d="M151.7,610.8L151.7,610.8c-2.5-1.9-3-5.5-1.1-8L601.7,2.3c1.9-2.5,5.5-3,8-1.1l0,0c2.5,1.9,3,5.5,1.1,8
			L159.7,609.6C157.8,612.2,154.2,612.7,151.7,610.8z"/>
	</g>
	<g>
		<path class="st2" d="M168.1,591.6L168.1,591.6c-2.1,2.1-5.5,2.1-7.6,0L20.4,451.4c-2.1-2.1-2.1-5.5,0-7.6h0c2.1-2.1,5.5-2.1,7.6,0
			L168.1,584C170.2,586.1,170.2,589.5,168.1,591.6z"/>
		<path class="st2" d="M161.1,592.1L161.1,592.1c-2.4-1.8-2.8-5.1-1.1-7.5L583.5,21c1.8-2.4,5.1-2.8,7.5-1.1v0
			c2.4,1.8,2.8,5.1,1.1,7.5L168.6,591C166.8,593.4,163.5,593.8,161.1,592.1z"/>
	</g>
	<g>
		<path class="st2" d="M305.8,591.6L305.8,591.6c-2.1,2.1-5.5,2.1-7.6,0L158.1,451.4c-2.1-2.1-2.1-5.5,0-7.6l0,0
			c2.1-2.1,5.5-2.1,7.6,0L305.8,584C307.9,586.1,307.9,589.5,305.8,591.6z"/>
		<path class="st2" d="M298.8,592.1L298.8,592.1c-2.4-1.8-2.8-5.1-1.1-7.5l285.8-378.3c1.8-2.4,5.1-2.8,7.5-1.1v0
			c2.4,1.8,2.8,5.1,1.1,7.5L306.3,591C304.6,593.4,301.2,593.8,298.8,592.1z"/>
	</g>
</g>
</svg>
