<?xml version="1.0" encoding="utf-8"?>
<!-- Generator: Adobe Illustrator 24.3.0, SVG Export Plug-In . SVG Version: 6.00 Build 0)  -->
<svg version="1.1" id="Слой_1" xmlns="http://www.w3.org/2000/svg" xmlns:xlink="http://www.w3.org/1999/xlink" x="0px" y="0px"
	 viewBox="0 0 612 612" style="enable-background:new 0 0 612 612;" xml:space="preserve">
<style type="text/css">
	.st0{display:none;}
	.st1{display:inline;}
	.st2{stroke:#000000;stroke-width:36;stroke-miterlimit:10;}
	.st3{display:inline;stroke:#000000;stroke-width:36;stroke-miterlimit:10;}
	.st4{display:inline;fill:none;stroke:#000000;stroke-width:36;stroke-miterlimit:10;}
	.st5{display:none;stroke:#000000;stroke-width:36;stroke-miterlimit:10;}
	.st6{fill:#FFFFFF;}
</style>
<g id="Слой_2_1_" class="st0">
	<g>
		<path class="st1" d="M159.1,610.2L159.1,610.2c-2.2,2.2-5.8,2.2-8.1,0L1.7,460.9c-2.2-2.2-2.2-5.8,0-8.1l0,0
			c2.2-2.2,5.8-2.2,8.1,0l149.3,149.3C161.4,604.4,161.4,608,159.1,610.2z"/>
		<path class="st1" d="M151.7,610.8L151.7,610.8c-2.5-1.9-3-5.5-1.1-8L601.7,2.3c1.9-2.5,5.5-3,8-1.1l0,0c2.5,1.9,3,5.5,1.1,8
			L159.7,609.6C157.8,612.2,154.2,612.7,151.7,610.8z"/>
	</g>
	<g class="st1">
		<path class="st2" d="M168.1,591.6L168.1,591.6c-2.1,2.1-5.5,2.1-7.6,0L20.4,451.4c-2.1-2.1-2.1-5.5,0-7.6l0,0
			c2.1-2.1,5.5-2.1,7.6,0L168.1,584C170.2,586.1,170.2,589.5,168.1,591.6z"/>
		<path class="st2" d="M161.1,592.1L161.1,592.1c-2.4-1.8-2.8-5.1-1.1-7.5L583.5,21c1.8-2.4,5.1-2.8,7.5-1.1l0,0
			c2.4,1.8,2.8,5.1,1.1,7.5L168.6,591C166.8,593.4,163.5,593.8,161.1,592.1z"/>
	</g>
	<g>
		<path class="st3" d="M305.8,591.6L305.8,591.6c-2.1,2.1-5.5,2.1-7.6,0L158.1,451.4c-2.1-2.1-2.1-5.5,0-7.6l0,0
			c2.1-2.1,5.5-2.1,7.6,0L305.8,584C307.9,586.1,307.9,589.5,305.8,591.6z"/>
		<path class="st3" d="M298.8,592.1L298.8,592.1c-2.4-1.8-2.8-5.1-1.1-7.5l285.8-378.3c1.8-2.4,5.1-2.8,7.5-1.1l0,0
			c2.4,1.8,2.8,5.1,1.1,7.5L306.3,591C304.6,593.4,301.2,593.8,298.8,592.1z"/>
	</g>
</g>
<g id="Слой_3" class="st0">
	<circle class="st4" cx="306" cy="306" r="186.5"/>
	<circle class="st4" cx="306" cy="306" r="223.8"/>
	<path class="st3" d="M307.1,431.3H305c-3,0-5.4-2.4-5.4-5.4V186c0-3,2.4-5.4,5.4-5.4h2.1c3,0,5.4,2.4,5.4,5.4v240
		C312.4,428.9,310,431.3,307.1,431.3z"/>
	<path class="st3" d="M180.7,307.1V305c0-3,2.4-5.4,5.4-5.4H426c3,0,5.4,2.4,5.4,5.4v2.1c0,3-2.4,5.4-5.4,5.4H186
		C183.1,312.4,180.7,310,180.7,307.1z"/>
</g>
<g class="st0">
	<path class="st1" d="M159.1,610.2L159.1,610.2c-2.2,2.2-5.8,2.2-8.1,0L1.7,460.9c-2.2-2.2-2.2-5.8,0-8.1l0,0c2.2-2.2,5.8-2.2,8.1,0
		l149.3,149.3C161.4,604.4,161.4,608,159.1,610.2z"/>
	<path class="st1" d="M151.7,610.8L151.7,610.8c-2.5-1.9-3-5.5-1.1-8L601.7,2.3c1.9-2.5,5.5-3,8-1.1l0,0c2.5,1.9,3,5.5,1.1,8
		L159.7,609.6C157.8,612.2,154.2,612.7,151.7,610.8z"/>
</g>
<path class="st5" d="M252.6,390.7L252.6,390.7c-3,0-5.4-2.4-5.4-5.4l0.1-198.2c0-3,2.4-5.4,5.4-5.4l0,0c3,0,5.4,2.4,5.4,5.4
	L258,385.3C258,388.3,255.6,390.7,252.6,390.7z"/>
<g>
	<g>
		<path class="st2" d="M542.7,541c-1.1,8.5-12.7,7.1-10.7-4.3c0,0-0.1-330.3-0.1-330.3c-0.1-1.8,0.1-4.4,1.6-5.6
			c3.1-3.3,9.2-1,9.2,3.6C542.7,204.4,542.7,541,542.7,541z"/>
		<path class="st2" d="M540.6,206.3c-0.3,5.8-5.8,4.6-8.6,0.1c0,0-73.5-131.8-73.5-131.8c-1.3-1.1-2.3-2.8-2.3-4.5
			c-0.2-4.6,5.9-7.3,9.2-3.8c0,0,75.7,134.1,75.7,134.1C542.2,201.5,540.6,204.9,540.6,206.3z"/>
		<path class="st2" d="M460.9,70.1c0,3-2.4,5.4-5.4,5.4c0,0-375.5-0.2-375.5-0.2c-2.1-0.2-7.7,0.7-9.2-1.6c-3.3-3.1-0.9-9.3,3.8-9.2
			c0,0,380.9,0.2,380.9,0.2C458.4,64.7,460.9,67.1,460.9,70.1z"/>
		<path class="st2" d="M80.1,536.3c2,11.6-9.7,13-10.8,4.5c0,0-0.1-470.6-0.1-470.7c0.1-6.7,10.9-6.7,10.7,0.2
			C80,76.2,80,530.4,80.1,536.3z"/>
		<path class="st2" d="M518.4,541.9c0,0-435.4-0.4-435.4-0.4c-4.6,0-8.2-3.7-8.2-8.3c0,0-0.1-444.5-0.1-444.5c0-4.6,3.7-8.3,8.3-8.3
			c6.2,2.3,369-4.3,373.4,2.5c0,0,67.8,126.2,67.8,126.2c1.5,1.5,2.4,3.6,2.4,5.8l0.1,318.6C526.7,538.2,523,541.9,518.4,541.9z"/>
		<path class="st2" d="M542.7,542.1c0,3-2.4,5.4-5.4,5.4l-462.2-0.4c-6.9,0.1-7.1-10.9,0-10.7c5.8,0,451,0.4,456.9,0.4
			c3.6-0.2,10.6-0.5,10.7,4.9C542.7,541.8,542.7,541.9,542.7,542.1z"/>
	</g>
	<path class="st6" d="M422.7,253.7h-244c-14.1,0-25.4-11.4-25.4-25.4V116c0-14.1,11.4-25.4,25.4-25.4h244
		c14.1,0,25.4,11.4,25.4,25.4v112.2C448.1,242.3,436.7,253.7,422.7,253.7z"/>
	<path class="st6" d="M474.5,525.9H126.8c-14.1,0-25.4-11.4-25.4-25.4V331.1c0-14.1,11.4-25.4,25.4-25.4h347.8
		c14.1,0,25.4,11.4,25.4,25.4v169.3C500,514.5,488.6,525.9,474.5,525.9z"/>
	<path d="M396.8,221.7L396.8,221.7c-14.1,0-25.4-11.4-25.4-25.4V143c0-14.1,11.4-25.4,25.4-25.4h0c14.1,0,25.4,11.4,25.4,25.4v53.3
		C422.3,210.3,410.9,221.7,396.8,221.7z"/>
	<path d="M127.9,353.1L127.9,353.1c0-5.8,4.7-10.5,10.5-10.5h335.2c5.8,0,10.5,4.7,10.5,10.5v0c0,5.8-4.7,10.5-10.5,10.5H138.4
		C132.6,363.6,127.9,358.9,127.9,353.1z"/>
	<path d="M127.9,405.3L127.9,405.3c0-5.8,4.7-10.5,10.5-10.5h335.2c5.8,0,10.5,4.7,10.5,10.5l0,0c0,5.8-4.7,10.5-10.5,10.5H138.4
		C132.6,415.8,127.9,411.1,127.9,405.3z"/>
</g>
</svg>
