<?xml version="1.0" encoding="utf-8"?>
<!-- Generator: Adobe Illustrator 24.3.0, SVG Export Plug-In . SVG Version: 6.00 Build 0)  -->
<svg version="1.1" id="Слой_1" xmlns="http://www.w3.org/2000/svg" xmlns:xlink="http://www.w3.org/1999/xlink" x="0px" y="0px"
	 viewBox="0 0 612 612" style="enable-background:new 0 0 612 612;" xml:space="preserve">
<style type="text/css">
	.st0{display:none;}
	.st1{display:inline;}
	.st2{stroke:#000000;stroke-width:36;stroke-miterlimit:10;}
	.st3{display:inline;stroke:#000000;stroke-width:36;stroke-miterlimit:10;}
	.st4{fill:none;stroke:#000000;stroke-width:36;stroke-miterlimit:10;}
	.st5{display:inline;fill:none;stroke:#000000;stroke-width:36;stroke-miterlimit:10;}
	.st6{display:none;stroke:#000000;stroke-width:36;stroke-miterlimit:10;}
	.st7{display:inline;fill:#FFFFFF;}
	.st8{display:inline;fill:none;stroke:#000000;stroke-width:18;stroke-miterlimit:10;}
</style>
<g id="Слой_2_1_" class="st0">
	<g>
		<path class="st1" d="M159.1,610.2L159.1,610.2c-2.2,2.2-5.8,2.2-8.1,0L1.7,460.9c-2.2-2.2-2.2-5.8,0-8.1l0,0
			c2.2-2.2,5.8-2.2,8.1,0l149.3,149.3C161.4,604.4,161.4,608,159.1,610.2z"/>
		<path class="st1" d="M151.7,610.8L151.7,610.8c-2.5-1.9-3-5.5-1.1-8L601.7,2.3c1.9-2.5,5.5-3,8-1.1l0,0c2.5,1.9,3,5.5,1.1,8
			L159.7,609.6C157.8,612.2,154.2,612.7,151.7,610.8z"/>
	</g>
	<g class="st1">
		<path class="st2" d="M168.1,591.6L168.1,591.6c-2.1,2.1-5.5,2.1-7.6,0L20.4,451.4c-2.1-2.1-2.1-5.5,0-7.6l0,0
			c2.1-2.1,5.5-2.1,7.6,0L168.1,584C170.2,586.1,170.2,589.5,168.1,591.6z"/>
		<path class="st2" d="M161.1,592.1L161.1,592.1c-2.4-1.8-2.8-5.1-1.1-7.5L583.5,21c1.8-2.4,5.1-2.8,7.5-1.1l0,0
			c2.4,1.8,2.8,5.1,1.1,7.5L168.6,591C166.8,593.4,163.5,593.8,161.1,592.1z"/>
	</g>
	<g>
		<path class="st3" d="M305.8,591.6L305.8,591.6c-2.1,2.1-5.5,2.1-7.6,0L158.1,451.4c-2.1-2.1-2.1-5.5,0-7.6l0,0
			c2.1-2.1,5.5-2.1,7.6,0L305.8,584C307.9,586.1,307.9,589.5,305.8,591.6z"/>
		<path class="st3" d="M298.8,592.1L298.8,592.1c-2.4-1.8-2.8-5.1-1.1-7.5l285.8-378.3c1.8-2.4,5.1-2.8,7.5-1.1l0,0
			c2.4,1.8,2.8,5.1,1.1,7.5L306.3,591C304.6,593.4,301.2,593.8,298.8,592.1z"/>
	</g>
</g>
<g id="Слой_3" class="st0">
	<circle class="st4" cx="306" cy="306" r="186.5"/>
	<circle class="st5" cx="306" cy="306" r="223.8"/>
	<path class="st2" d="M307.1,431.3H305c-3,0-5.4-2.4-5.4-5.4V186c0-3,2.4-5.4,5.4-5.4h2.1c3,0,5.4,2.4,5.4,5.4v240
		C312.4,428.9,310,431.3,307.1,431.3z"/>
	<path class="st2" d="M180.7,307.1V305c0-3,2.4-5.4,5.4-5.4H426c3,0,5.4,2.4,5.4,5.4v2.1c0,3-2.4,5.4-5.4,5.4H186
		C183.1,312.4,180.7,310,180.7,307.1z"/>
</g>
<g class="st0">
	<path class="st1" d="M159.1,610.2L159.1,610.2c-2.2,2.2-5.8,2.2-8.1,0L1.7,460.9c-2.2-2.2-2.2-5.8,0-8.1l0,0c2.2-2.2,5.8-2.2,8.1,0
		l149.3,149.3C161.4,604.4,161.4,608,159.1,610.2z"/>
	<path class="st1" d="M151.7,610.8L151.7,610.8c-2.5-1.9-3-5.5-1.1-8L601.7,2.3c1.9-2.5,5.5-3,8-1.1l0,0c2.5,1.9,3,5.5,1.1,8
		L159.7,609.6C157.8,612.2,154.2,612.7,151.7,610.8z"/>
</g>
<path class="st6" d="M252.6,390.7L252.6,390.7c-3,0-5.4-2.4-5.4-5.4l0.1-198.2c0-3,2.4-5.4,5.4-5.4l0,0c3,0,5.4,2.4,5.4,5.4
	L258,385.3C258,388.3,255.6,390.7,252.6,390.7z"/>
<g class="st0">
	<g class="st1">
		<path class="st2" d="M542.7,541c-1.1,8.5-12.7,7.1-10.7-4.3l-0.1-330.3c-0.1-1.8,0.1-4.4,1.6-5.6c3.1-3.3,9.2-1,9.2,3.6
			C542.7,204.4,542.7,541,542.7,541z"/>
		<path class="st2" d="M540.6,206.3c-0.3,5.8-5.8,4.6-8.6,0.1L458.5,74.6c-1.3-1.1-2.3-2.8-2.3-4.5c-0.2-4.6,5.9-7.3,9.2-3.8
			l75.7,134.1C542.2,201.5,540.6,204.9,540.6,206.3z"/>
		<path class="st2" d="M460.9,70.1c0,3-2.4,5.4-5.4,5.4L80,75.3c-2.1-0.2-7.7,0.7-9.2-1.6c-3.3-3.1-0.9-9.3,3.8-9.2l380.9,0.2
			C458.4,64.7,460.9,67.1,460.9,70.1z"/>
		<path class="st2" d="M80.1,536.3c2,11.6-9.7,13-10.8,4.5c0,0-0.1-470.6-0.1-470.7c0.1-6.7,10.9-6.7,10.7,0.2
			C80,76.2,80,530.4,80.1,536.3z"/>
		<path class="st2" d="M518.4,541.9L83,541.5c-4.6,0-8.2-3.7-8.2-8.3L74.7,88.7c0-4.6,3.7-8.3,8.3-8.3c6.2,2.3,369-4.3,373.4,2.5
			l67.8,126.2c1.5,1.5,2.4,3.6,2.4,5.8l0.1,318.6C526.7,538.2,523,541.9,518.4,541.9z"/>
		<path class="st2" d="M542.7,542.1c0,3-2.4,5.4-5.4,5.4l-462.2-0.4c-6.9,0.1-7.1-10.9,0-10.7c5.8,0,451,0.4,456.9,0.4
			c3.6-0.2,10.6-0.5,10.7,4.9C542.7,541.8,542.7,541.9,542.7,542.1z"/>
	</g>
	<path class="st7" d="M422.7,253.7h-244c-14.1,0-25.4-11.4-25.4-25.4V116c0-14.1,11.4-25.4,25.4-25.4h244
		c14.1,0,25.4,11.4,25.4,25.4v112.2C448.1,242.3,436.7,253.7,422.7,253.7z"/>
	<path class="st7" d="M474.5,525.9H126.8c-14.1,0-25.4-11.4-25.4-25.4V331.1c0-14.1,11.4-25.4,25.4-25.4h347.8
		c14.1,0,25.4,11.4,25.4,25.4v169.3C500,514.5,488.6,525.9,474.5,525.9z"/>
	<path class="st1" d="M396.8,221.7L396.8,221.7c-14.1,0-25.4-11.4-25.4-25.4V143c0-14.1,11.4-25.4,25.4-25.4l0,0
		c14.1,0,25.4,11.4,25.4,25.4v53.3C422.3,210.3,410.9,221.7,396.8,221.7z"/>
	<path class="st1" d="M127.9,353.1L127.9,353.1c0-5.8,4.7-10.5,10.5-10.5h335.2c5.8,0,10.5,4.7,10.5,10.5l0,0
		c0,5.8-4.7,10.5-10.5,10.5H138.4C132.6,363.6,127.9,358.9,127.9,353.1z"/>
	<path class="st1" d="M127.9,405.3L127.9,405.3c0-5.8,4.7-10.5,10.5-10.5h335.2c5.8,0,10.5,4.7,10.5,10.5l0,0
		c0,5.8-4.7,10.5-10.5,10.5H138.4C132.6,415.8,127.9,411.1,127.9,405.3z"/>
</g>
<g class="st0">
	<g class="st1">
		<path class="st2" d="M124.6,376.3L124.6,376.3c-2.1-2.1-2.1-5.5,0-7.6l251.2-251.1c2.1-2.1,5.5-2.1,7.6,0l0,0
			c2.1,2.1,2.1,5.5,0,7.6L132.2,376.3C130.1,378.4,126.7,378.4,124.6,376.3z"/>
		<path class="st2" d="M58.6,551.1L58.6,551.1c-2.9-0.6-4.8-3.5-4.2-6.4l64.3-168.9c0.6-2.9,3.5-4.8,6.4-4.2l0,0
			c2.9,0.6,4.8,3.5,4.2,6.4L64.9,547C64.3,549.9,61.5,551.8,58.6,551.1z"/>
		<path class="st2" d="M236.8,488.6L236.8,488.6c2.1,2.1,5.5,2.1,7.6,0l251.1-251.2c2.1-2.1,2.1-5.5,0-7.6l0,0
			c-2.1-2.1-5.5-2.1-7.6,0L236.8,481C234.7,483.1,234.7,486.5,236.8,488.6z"/>
		<path class="st2" d="M59,551.5L59,551.5c0.6,2.9,3.5,4.8,6.4,4.2l172-61.2c2.9-0.6,4.8-3.5,4.2-6.4l0,0c-0.6-2.9-3.5-4.8-6.4-4.2
			l-172,61.2C60.2,545.8,58.3,548.6,59,551.5z"/>
		<path class="st2" d="M85.4,485.7L85.4,485.7c-0.7,0.6-0.9,1.6-0.3,2.3l39.5,40c0.5,0.7,1.6,0.9,2.3,0.3l0,0
			c0.7-0.6,0.9-1.6,0.3-2.3l-39.5-40C87.2,485.3,86.1,485.1,85.4,485.7z"/>
		<path class="st2" d="M152.7,372.9L152.7,372.9c0.9-0.9,206.2-204.3,244.6-240.9l84.3,84.2C445,254.6,241.1,459.5,240.2,460.4l0,0
			c-0.9,0.9-2.4,0.9-3.3,0l-84.3-84.2C151.8,375.3,151.8,373.8,152.7,372.9z"/>
		<path class="st2" d="M414.1,78L414.1,78c-1.3,1.2-1.3,3.2,0,4.5l117.3,115.9c1.3,1.2,3.3,1.2,4.5,0l0,0c1.3-1.2,23-25,21.7-26.2
			L440.4,56.3C439.1,55,415.4,76.7,414.1,78z"/>
	</g>
	<path class="st7" d="M163.6,352.7L163.6,352.7c2.1,2.1,5.5,2.1,7.6,0l213-211.9c2.1-2.1,2.1-5.5,0-7.6l0,0c-2.1-2.1-5.5-2.1-7.6,0
		l-213,211.9C161.5,347.2,161.5,350.6,163.6,352.7z"/>
	<path class="st7" d="M259.5,448.5L259.5,448.5c2.1,2.1,5.5,2.1,7.6,0l213-211.9c2.1-2.1,2.1-5.5,0-7.6l0,0c-2.1-2.1-5.5-2.1-7.6,0
		l-213,211.9C257.4,443,257.4,446.4,259.5,448.5z"/>
	<path class="st7" d="M212.2,401L212.2,401c2.1,2.1,5.5,2.1,7.6,0l213-211.9c2.1-2.1,2.1-5.5,0-7.6l0,0c-2.1-2.1-5.5-2.1-7.6,0
		l-213,211.9C210.1,395.5,210.1,398.9,212.2,401z"/>
</g>
<g id="Слой_3_1_" class="st0">
	<g id="Слой_2_2_" class="st1">
		<g class="st0">
			<path class="st1" d="M248.9,421.7L248.9,421.7c-1.2,1.2-3.2,1.2-4.5,0L161.8,339c-1.2-1.2-1.2-3.2,0-4.5l0,0
				c1.2-1.2,3.2-1.2,4.5,0l82.7,82.7C250.2,418.5,250.2,420.5,248.9,421.7z"/>
			<path class="st1" d="M244.8,422L244.8,422c-1.4-1.1-1.7-3-0.6-4.4L494,85.1c1.1-1.4,3-1.7,4.4-0.6l0,0c1.4,1.1,1.7,3,0.6,4.4
				L249.2,421.4C248.2,422.8,246.2,423.1,244.8,422z"/>
		</g>
		<g>
			<path class="st2" d="M253.9,411.4L253.9,411.4c-1.2,1.2-3,1.2-4.2,0l-77.6-77.6c-1.2-1.2-1.2-3,0-4.2l0,0c1.2-1.2,3-1.2,4.2,0
				l77.6,77.6C255.1,408.3,255.1,410.2,253.9,411.4z"/>
			<path class="st2" d="M250,411.7L250,411.7c-1.3-1-1.6-2.8-0.6-4.2L483.9,95.4c1-1.3,2.8-1.6,4.2-0.6l0,0c1.3,1,1.6,2.8,0.6,4.2
				L254.2,411.1C253.2,412.4,251.4,412.6,250,411.7z"/>
		</g>
		<g class="st0">
			<path class="st3" d="M330.2,411.4L330.2,411.4c-1.2,1.2-3,1.2-4.2,0l-77.6-77.6c-1.2-1.2-1.2-3,0-4.2l0,0c1.2-1.2,3-1.2,4.2,0
				l77.6,77.6C331.3,408.3,331.3,410.2,330.2,411.4z"/>
			<path class="st3" d="M326.3,411.7L326.3,411.7c-1.3-1-1.6-2.8-0.6-4.2L483.9,198c1-1.3,2.8-1.6,4.2-0.6l0,0
				c1.3,1,1.6,2.8,0.6,4.2L330.4,411.1C329.5,412.4,327.6,412.6,326.3,411.7z"/>
		</g>
	</g>
	<path class="st8" d="M379.1,429.3H232.9c-27.7,0-50.2-22.5-50.2-50.2V232.9c0-27.7,22.5-50.2,50.2-50.2h146.3
		c27.7,0,50.2,22.5,50.2,50.2v146.3C429.3,406.9,406.9,429.3,379.1,429.3z"/>
</g>
<g id="Слой_4">
	<circle class="st4" cx="306" cy="306" r="223.8"/>
	<g>
		<path class="st2" d="M201.5,352L201.5,352c0-3,40.6-47,42.5-47l124.1,0.1c1.9,0,42.5,44,42.5,47l0,0c0,3-2.4,76-5.4,76L206.9,428
			C203.9,428,201.5,355,201.5,352z"/>
		<circle class="st2" cx="306" cy="237.3" r="53.4"/>
	</g>
</g>
</svg>
