<?xml version="1.0" encoding="utf-8"?>
<!-- Generator: Adobe Illustrator 24.3.0, SVG Export Plug-In . SVG Version: 6.00 Build 0)  -->
<svg version="1.1" xmlns="http://www.w3.org/2000/svg" xmlns:xlink="http://www.w3.org/1999/xlink" x="0px" y="0px"
	 viewBox="0 0 24 24" style="enable-background:new 0 0 24 24;" xml:space="preserve">
<style type="text/css">
	.st0{display:none;}
	.st1{display:inline;}
</style>
<g id="Слой_1" class="st0">
	<g id="Content__x2F__list_format" class="st1">
		<path id="Vector" d="M3.7,16.3c-0.1-0.1-0.2-0.2-0.3-0.2c-0.2-0.1-0.5-0.1-0.8,0c-0.1,0-0.2,0.1-0.3,0.2c-0.1,0.1-0.2,0.2-0.2,0.3
			C2,16.8,2,17,2,17.2c0,0.2,0.1,0.4,0.3,0.5c0.1,0.1,0.2,0.2,0.3,0.2C2.7,18,2.9,18,3,18s0.3,0,0.4-0.1c0.1-0.1,0.2-0.1,0.3-0.2
			c0.1-0.1,0.2-0.3,0.3-0.5c0-0.2,0-0.4-0.1-0.6C3.9,16.5,3.8,16.4,3.7,16.3L3.7,16.3z M7,8h14c0.3,0,0.5-0.1,0.7-0.3
			C21.9,7.5,22,7.3,22,7s-0.1-0.5-0.3-0.7C21.5,6.1,21.3,6,21,6H7C6.7,6,6.5,6.1,6.3,6.3C6.1,6.5,6,6.7,6,7s0.1,0.5,0.3,0.7
			C6.5,7.9,6.7,8,7,8z M3.7,11.3c-0.1-0.1-0.3-0.2-0.5-0.3c-0.2,0-0.4,0-0.6,0.1c-0.1,0.1-0.2,0.1-0.3,0.2c-0.1,0.1-0.2,0.2-0.2,0.3
			C2,11.7,2,11.9,2,12s0,0.3,0.1,0.4c0.1,0.1,0.1,0.2,0.2,0.3c0.1,0.1,0.2,0.2,0.3,0.2C2.7,13,2.9,13,3,13s0.3,0,0.4-0.1
			c0.1-0.1,0.2-0.1,0.3-0.2c0.1-0.1,0.2-0.2,0.2-0.3C4,12.3,4,12.1,4,12s0-0.3-0.1-0.4C3.9,11.5,3.8,11.4,3.7,11.3L3.7,11.3z M21,11
			H7c-0.3,0-0.5,0.1-0.7,0.3C6.1,11.5,6,11.7,6,12s0.1,0.5,0.3,0.7C6.5,12.9,6.7,13,7,13h14c0.3,0,0.5-0.1,0.7-0.3S22,12.3,22,12
			s-0.1-0.5-0.3-0.7S21.3,11,21,11z M3.7,6.3C3.6,6.2,3.5,6.1,3.4,6.1C3.2,6,3,6,2.8,6c-0.2,0-0.4,0.1-0.5,0.3
			C2.2,6.4,2.1,6.5,2.1,6.6C2,6.7,2,6.9,2,7s0,0.3,0.1,0.4c0.1,0.1,0.1,0.2,0.2,0.3c0.1,0.1,0.2,0.2,0.3,0.2C2.8,8,3,8,3.2,8
			c0.2,0,0.4-0.1,0.5-0.3c0.1-0.1,0.2-0.2,0.2-0.3C4,7.3,4,7.1,4,7s0-0.3-0.1-0.4C3.9,6.5,3.8,6.4,3.7,6.3L3.7,6.3z M21,16H7
			c-0.3,0-0.5,0.1-0.7,0.3C6.1,16.5,6,16.7,6,17s0.1,0.5,0.3,0.7C6.5,17.9,6.7,18,7,18h14c0.3,0,0.5-0.1,0.7-0.3S22,17.3,22,17
			s-0.1-0.5-0.3-0.7S21.3,16,21,16z"/>
	</g>
</g>
<g id="Слой_2">
	<g id="Content__x2F__list_format_1_">
		<path id="Vector_1_" d="M3.7,16.3c-0.1-0.1-0.2-0.2-0.3-0.2c-0.2-0.1-0.5-0.1-0.8,0c-0.1,0-0.2,0.1-0.3,0.2
			c-0.1,0.1-0.2,0.2-0.2,0.3C2,16.8,2,17,2,17.2s0.1,0.4,0.3,0.5c0.1,0.1,0.2,0.2,0.3,0.2C2.7,18,2.9,18,3,18s0.3,0,0.4-0.1
			c0.1-0.1,0.2-0.1,0.3-0.2c0.1-0.1,0.2-0.3,0.3-0.5c0-0.2,0-0.4-0.1-0.6C3.9,16.5,3.8,16.4,3.7,16.3L3.7,16.3z M7,8h14
			c0.3,0,0.5-0.1,0.7-0.3C21.9,7.5,22,7.3,22,7s-0.1-0.5-0.3-0.7C21.5,6.1,21.3,6,21,6H7C6.7,6,6.5,6.1,6.3,6.3C6.1,6.5,6,6.7,6,7
			s0.1,0.5,0.3,0.7C6.5,7.9,6.7,8,7,8z M3.7,11.3c-0.1-0.1-0.3-0.2-0.5-0.3c-0.2,0-0.4,0-0.6,0.1c-0.1,0.1-0.2,0.1-0.3,0.2
			c-0.1,0.1-0.2,0.2-0.2,0.3C2,11.7,2,11.9,2,12s0,0.3,0.1,0.4c0.1,0.1,0.1,0.2,0.2,0.3c0.1,0.1,0.2,0.2,0.3,0.2C2.7,13,2.9,13,3,13
			s0.3,0,0.4-0.1c0.1-0.1,0.2-0.1,0.3-0.2c0.1-0.1,0.2-0.2,0.2-0.3C4,12.3,4,12.1,4,12s0-0.3-0.1-0.4C3.9,11.5,3.8,11.4,3.7,11.3
			L3.7,11.3z M21,11H7c-0.3,0-0.5,0.1-0.7,0.3C6.1,11.5,6,11.7,6,12s0.1,0.5,0.3,0.7C6.5,12.9,6.7,13,7,13h14c0.3,0,0.5-0.1,0.7-0.3
			S22,12.3,22,12s-0.1-0.5-0.3-0.7S21.3,11,21,11z M3.7,6.3C3.6,6.2,3.5,6.1,3.4,6.1C3.2,6,3,6,2.8,6c-0.2,0-0.4,0.1-0.5,0.3
			C2.2,6.4,2.1,6.5,2.1,6.6C2,6.7,2,6.9,2,7s0,0.3,0.1,0.4c0.1,0.1,0.1,0.2,0.2,0.3c0.1,0.1,0.2,0.2,0.3,0.2C2.8,8,3,8,3.2,8
			c0.2,0,0.4-0.1,0.5-0.3c0.1-0.1,0.2-0.2,0.2-0.3C4,7.3,4,7.1,4,7s0-0.3-0.1-0.4C3.9,6.5,3.8,6.4,3.7,6.3L3.7,6.3z M21,16H7
			c-0.3,0-0.5,0.1-0.7,0.3C6.1,16.5,6,16.7,6,17c0,0.3,0.1,0.5,0.3,0.7C6.5,17.9,6.7,18,7,18h14c0.3,0,0.5-0.1,0.7-0.3
			S22,17.3,22,17c0-0.3-0.1-0.5-0.3-0.7S21.3,16,21,16z"/>
	</g>
</g>
</svg>
